<svg width="24" height="24" viewBox="0 0 24 24" fill="none" xmlns="http://www.w3.org/2000/svg">
<path fill-rule="evenodd" clip-rule="evenodd" d="M0.549833 0.549875C-0.515003 1.61479 -0.497568 1.64085 4.91828 7.07137L9.13043 11.2948C9.5197 11.6851 9.51969 12.3168 9.13043 12.7071L4.91828 16.9305C0.506339 21.3544 0.00185471 21.9228 0.00185471 22.4699C0.00185471 23.2872 0.71462 24 1.53181 24C2.07885 24 2.64726 23.4955 7.07082 19.0832L11.2938 14.8708C11.6841 14.4815 12.3159 14.4815 12.7062 14.8708L16.9292 19.0832C21.3527 23.4955 21.9212 24 22.4682 24C23.2854 24 23.9981 23.2872 23.9981 22.4699C23.9981 21.9228 23.4937 21.3544 19.0817 16.9305L14.8696 12.7071C14.4803 12.3168 14.4803 11.6851 14.8696 11.2948L19.0817 7.07137C24.4976 1.64085 24.515 1.61479 23.4502 0.549875C22.3853 -0.515043 22.3593 -0.497606 16.9292 4.91866L12.7062 9.13102C12.3159 9.52037 11.6841 9.52036 11.2938 9.13102L7.07082 4.91866C1.64073 -0.497606 1.61467 -0.515043 0.549833 0.549875Z" fill="#A2A2A2"/>
</svg>
