<svg width="28" height="27" viewBox="0 0 28 27" fill="none" xmlns="http://www.w3.org/2000/svg">
<path d="M7.30169 5.45724H23.8617L21.7017 12.9604H10.1817L7.30169 5.45724Z" fill="#F6F6F6"/>
<path d="M9.85156 22.7368C9.40655 22.7368 8.97154 22.8619 8.60153 23.0961C8.23152 23.3303 7.94313 23.6632 7.77283 24.0527C7.60254 24.4422 7.55798 24.8708 7.6448 25.2843C7.73161 25.6978 7.9459 26.0776 8.26057 26.3757C8.57524 26.6738 8.97615 26.8768 9.41261 26.959C9.84907 27.0413 10.3015 26.9991 10.7126 26.8377C11.1237 26.6764 11.4751 26.4032 11.7224 26.0527C11.9696 25.7021 12.1016 25.29 12.1016 24.8684C12.1016 24.3031 11.8645 23.7609 11.4426 23.3612C11.0206 22.9614 10.4483 22.7368 9.85156 22.7368ZM25.6016 18.4737H7.60156C7.20374 18.4737 6.82221 18.324 6.5409 18.0575C6.2596 17.791 6.10156 17.4295 6.10156 17.0526C6.10156 16.6757 6.2596 16.3143 6.5409 16.0478C6.82221 15.7813 7.20374 15.6316 7.60156 15.6316H20.3384C21.3155 15.6286 22.2653 15.3257 23.0454 14.7683C23.8256 14.2108 24.394 13.4289 24.6656 12.5397L27.0437 4.65381C27.1075 4.44231 27.1186 4.21968 27.0762 4.00342C27.0337 3.78717 26.9389 3.58321 26.7991 3.40759C26.6593 3.23197 26.4783 3.08949 26.2705 2.99136C26.0627 2.89323 25.8337 2.84214 25.6016 2.84211H7.21017C6.89965 2.01414 6.32723 1.29701 5.5709 0.78842C4.81457 0.279831 3.91112 0.00452001 2.98365 0H1.60156C1.20374 0 0.822207 0.149718 0.540902 0.416217C0.259598 0.682716 0.101563 1.04417 0.101562 1.42105C0.101563 1.79794 0.259598 2.15939 0.540902 2.42589C0.822207 2.69239 1.20374 2.84211 1.60156 2.84211H2.98365C3.30927 2.84318 3.62577 2.94416 3.88574 3.12991C4.14572 3.31566 4.33519 3.5762 4.42578 3.87251L4.65906 4.64661L4.65942 4.65381L7.12036 12.8138C5.9752 12.9305 4.92087 13.4587 4.17446 14.2897C3.42805 15.1207 3.04638 16.1912 3.10805 17.2808C3.16972 18.3704 3.67003 19.3961 4.50596 20.1467C5.34189 20.8974 6.4498 21.3158 7.60156 21.3158H25.6016C25.9994 21.3158 26.3809 21.1661 26.6622 20.8996C26.9435 20.6331 27.1016 20.2716 27.1016 19.8947C27.1016 19.5178 26.9435 19.1564 26.6622 18.8899C26.3809 18.6234 25.9994 18.4737 25.6016 18.4737ZM23.613 5.68421L21.7812 11.7584C21.6908 12.0549 21.5012 12.3157 21.2411 12.5016C20.981 12.6875 20.6642 12.7885 20.3384 12.7895H10.2331L8.09119 5.68421H23.613ZM21.8516 22.7368C21.4066 22.7368 20.9715 22.8619 20.6015 23.0961C20.2315 23.3303 19.9431 23.6632 19.7728 24.0527C19.6025 24.4422 19.558 24.8708 19.6448 25.2843C19.7316 25.6978 19.9459 26.0776 20.2606 26.3757C20.5752 26.6738 20.9762 26.8768 21.4126 26.959C21.8491 27.0413 22.3015 26.9991 22.7126 26.8377C23.1237 26.6764 23.4751 26.4032 23.7224 26.0527C23.9696 25.7021 24.1016 25.29 24.1016 24.8684C24.1016 24.3031 23.8645 23.7609 23.4426 23.3612C23.0206 22.9614 22.4483 22.7368 21.8516 22.7368Z" fill="#383B47"/>
</svg>
