<svg width="11" height="14" viewBox="0 0 11 14" fill="none" xmlns="http://www.w3.org/2000/svg">
<path fill-rule="evenodd" clip-rule="evenodd" d="M4.79185 0.0382C4.15638 0.108462 3.38695 0.359149 2.79163 0.689836C1.3392 1.49666 0.385747 2.86045 0.0597694 4.59756C-0.0120006 4.97998 -0.0213781 6.06303 0.0438581 6.43416C0.199619 7.3204 0.498886 8.08581 0.960719 8.77906C1.19478 9.13044 5.10151 13.8631 5.22277 13.9422C5.34075 14.0191 5.65884 14.0193 5.77665 13.9424C5.89765 13.8636 9.80559 9.1296 10.0391 8.77906C10.5009 8.08591 10.8002 7.32044 10.956 6.43416C11.0219 6.05949 11.0119 4.98028 10.9389 4.58961C10.687 3.24095 10.0348 2.09164 9.05759 1.27438C7.89085 0.298625 6.38433 -0.137944 4.79185 0.0382ZM5.95263 3.283C6.9329 3.48971 7.66539 4.39062 7.66539 5.38949C7.66539 6.61269 6.60726 7.60674 5.38144 7.5351C4.81582 7.50204 4.37206 7.29971 3.95366 6.88414C3.44897 6.3828 3.23319 5.64628 3.38377 4.93887C3.6288 3.78751 4.79141 3.03811 5.95263 3.283Z" fill="#2D2D2D"/>
</svg>
