<svg width="16" height="16" viewBox="0 0 16 16" fill="none" xmlns="http://www.w3.org/2000/svg">
<path d="M1.66641 8.1237H8.72368L7.85735 8.92895C7.79489 8.98698 7.74531 9.05602 7.71148 9.13209C7.67765 9.20816 7.66023 9.28975 7.66023 9.37215C7.66023 9.45456 7.67765 9.53615 7.71148 9.61222C7.74531 9.68828 7.79489 9.75732 7.85735 9.81535C7.9193 9.87386 7.99301 9.9203 8.07421 9.95199C8.15542 9.98368 8.24253 10 8.3305 10C8.41847 10 8.50558 9.98368 8.58679 9.95199C8.66799 9.9203 8.7417 9.87386 8.80365 9.81535L10.8029 7.94267C10.8653 7.88464 10.9149 7.8156 10.9487 7.73953C10.9826 7.66346 11 7.58187 11 7.49947C11 7.41706 10.9826 7.33547 10.9487 7.2594C10.9149 7.18334 10.8653 7.1143 10.8029 7.05627L8.80365 5.18358C8.67816 5.06604 8.50797 5 8.3305 5C8.15303 5 7.98284 5.06604 7.85735 5.18358C7.73186 5.30112 7.66136 5.46055 7.66136 5.62678C7.66136 5.79302 7.73186 5.95244 7.85735 6.06998L8.72368 6.87524H1.66641C1.48967 6.87524 1.32016 6.94101 1.19519 7.05807C1.07021 7.17514 1 7.33391 1 7.49947C1 7.66502 1.07021 7.8238 1.19519 7.94086C1.32016 8.05793 1.48967 8.1237 1.66641 8.1237Z" fill="#2D2D2D"/>
<path d="M14 1.65C14 1.47761 13.9323 1.31228 13.8117 1.19038C13.6912 1.06848 13.5276 1 13.3571 1H5.64286C5.47236 1 5.30885 1.06848 5.18829 1.19038C5.06773 1.31228 5 1.47761 5 1.65V3.6C5 3.77239 5.06773 3.93772 5.18829 4.05962C5.30885 4.18152 5.47236 4.25 5.64286 4.25C5.81335 4.25 5.97687 4.18152 6.09743 4.05962C6.21798 3.93772 6.28571 3.77239 6.28571 3.6V2.3H12.7143V12.7H6.28571V11.4C6.28571 11.2276 6.21798 11.0623 6.09743 10.9404C5.97687 10.8185 5.81335 10.75 5.64286 10.75C5.47236 10.75 5.30885 10.8185 5.18829 10.9404C5.06773 11.0623 5 11.2276 5 11.4V13.35C5 13.5224 5.06773 13.6877 5.18829 13.8096C5.30885 13.9315 5.47236 14 5.64286 14H13.3571C13.5276 14 13.6912 13.9315 13.8117 13.8096C13.9323 13.6877 14 13.5224 14 13.35V1.65Z" fill="#2D2D2D"/>
</svg>
