<svg width="29" height="27" viewBox="0 0 29 27" fill="none" xmlns="http://www.w3.org/2000/svg">
<path d="M0.248535 8.68065C0.248535 14.8031 5.25531 20.8249 13.1652 25.9988C13.4597 26.1857 13.8804 26.3869 14.1749 26.3869C14.4695 26.3869 14.8902 26.1857 15.1987 25.9988C23.0946 20.8249 28.1014 14.8031 28.1014 8.68065C28.1014 3.59299 24.6934 0 20.1494 0C17.5549 0 15.4512 1.26473 14.1749 3.20494C12.9268 1.2791 10.795 0 8.20047 0C3.65651 0 0.248535 3.59299 0.248535 8.68065ZM2.50649 8.68065C2.50649 4.85772 4.91872 2.31388 8.17243 2.31388C10.809 2.31388 12.3237 3.9954 13.2213 5.43259C13.5999 6.00747 13.8384 6.16556 14.1749 6.16556C14.5115 6.16556 14.7219 5.9931 15.1286 5.43259C16.0963 4.02414 17.5549 2.31388 20.1775 2.31388C23.4312 2.31388 25.8434 4.85772 25.8434 8.68065C25.8434 14.027 20.3317 19.7902 14.4695 23.7856C14.3292 23.8862 14.231 23.958 14.1749 23.958C14.1188 23.958 14.0207 23.8862 13.8945 23.7856C8.01816 19.7902 2.50649 14.027 2.50649 8.68065Z" fill="#383B47"/>
</svg>
