<svg width="164" height="20" viewBox="0 0 164 20" fill="none" xmlns="http://www.w3.org/2000/svg">
<path fill-rule="evenodd" clip-rule="evenodd" d="M134.103 5.46952H132.726V10.8412H134.078C134.42 10.8629 134.764 10.81 135.085 10.6858C135.406 10.5617 135.697 10.3692 135.939 10.1212C136.182 9.87316 136.37 9.57527 136.491 9.24733C136.612 8.9194 136.663 8.56893 136.641 8.21923C136.66 7.49906 136.406 6.79929 135.93 6.26683C135.7 6.00698 135.418 5.80116 135.102 5.66351C134.787 5.52586 134.446 5.45967 134.103 5.46952ZM141.062 8.02501C141.095 8.89652 140.944 9.76518 140.618 10.5715C140.293 11.3778 139.8 12.1026 139.174 12.6964C137.888 13.8919 136.197 14.5298 134.458 14.4751H132.726V19.5554H128.421V1.8663H134.548C136.601 1.8663 138.211 2.43872 139.379 3.58357C139.943 4.16146 140.383 4.85207 140.673 5.61201C140.962 6.37194 141.095 7.18478 141.062 7.99946V8.02501ZM124.541 19.5554H121.342V15.993H124.541V19.5554ZM104.496 12.0065H103.89V16.0952H104.686C106.355 16.0952 107.189 15.4325 107.189 14.1071C107.204 12.7169 106.298 12.0065 104.496 12.0065ZM111.505 14.0917C111.505 16.0407 110.837 17.4633 109.502 18.3594C108.396 19.126 106.849 19.5145 104.866 19.5145H99.5847V1.8663H103.89V8.58722H103.84C106.069 8.55315 107.815 8.87173 109.077 9.54297C110.699 10.4289 111.508 11.9502 111.505 14.1071V14.0917ZM117.467 19.5298H113.097V1.8663H117.467V19.5298ZM91.5196 15.8704L88.8262 7.11526L86.1328 15.8704H91.5196ZM97.6673 19.5298H80.0502V15.8704H81.9225L86.5584 1.8663H91.1241L95.7849 15.8704H97.6823L97.6673 19.5298ZM70.1328 5.17821C67.7732 5.17821 66.2346 6.39632 65.517 8.83255H74.6484C74.1011 6.39632 72.6025 5.17821 70.1528 5.17821H70.1328ZM74.0227 13.8669H78.6134C76.9613 17.9556 74.1345 20 70.1328 20C67.3894 20 65.1783 19.0937 63.4995 17.281C62.6753 16.3967 62.0318 15.3538 61.6063 14.2131C61.1809 13.0724 60.982 11.8567 61.0214 10.6367C60.9988 9.41405 61.2151 8.19904 61.6578 7.06274C62.1006 5.92644 62.7608 4.89165 63.5998 4.01888C64.4388 3.14612 65.4399 2.45289 66.5444 1.97974C67.649 1.50658 68.8348 1.26299 70.0327 1.2632C71.2727 1.2213 72.5066 1.45667 73.6481 1.95285C74.7896 2.44902 75.8111 3.19399 76.6409 4.13557C78.2952 6.04541 79.1726 8.52807 79.094 11.0763V12.0985H65.4019C65.8324 14.8243 67.4177 16.1872 70.1578 16.1872C71.8266 16.1872 72.9413 15.7698 73.502 14.9351C73.7172 14.6058 73.8984 14.2547 74.0427 13.8873L74.0227 13.8669ZM58.283 19.4889H53.9325V5.52064H48.5257V19.5298H44.1803V1.8663H58.283V19.4889ZM41.4619 10.5549C41.508 11.8303 41.2902 13.1013 40.8227 14.2849C40.3552 15.4685 39.6484 16.5382 38.7485 17.4241C36.9606 19.1272 34.5842 20.037 32.1402 19.954C30.9369 19.9952 29.7374 19.7928 28.611 19.3586C27.4846 18.9244 26.4535 18.2669 25.577 17.4241C24.6778 16.5456 23.97 15.4834 23.4999 14.3069C23.0298 13.1303 22.8079 11.8658 22.8486 10.5958C22.8139 9.33926 23.0425 8.08964 23.519 6.93055C23.9956 5.77147 24.7092 4.72967 25.6121 3.8749C26.4841 3.03149 27.5104 2.37171 28.6322 1.93324C29.754 1.49477 30.9494 1.28619 32.1502 1.31942C34.5887 1.25294 36.9543 2.17124 38.7335 3.8749C39.6321 4.73227 40.3418 5.7749 40.8157 6.93362C41.2895 8.09235 41.5166 9.34068 41.4819 10.5958L41.4619 10.5549ZM27.2591 10.6572C27.1976 12.033 27.6646 13.3791 28.5608 14.4086C29.5151 15.3681 30.8008 15.9059 32.1402 15.9059C33.4797 15.9059 34.7654 15.3681 35.7197 14.4086C36.6145 13.3786 37.0798 12.0324 37.0163 10.6572C37.0706 9.25834 36.6037 7.89048 35.7097 6.82904C34.7594 5.8696 33.4768 5.33149 32.1402 5.33149C30.8037 5.33149 29.5211 5.8696 28.5708 6.82904C27.6729 7.9035 27.2109 9.28745 27.2792 10.6981L27.2591 10.6572ZM20.0952 19.5298H15.965L16.0601 8.14257L11.5545 19.5298H8.55071L4.08511 8.14257L4.18024 19.5298H0V1.8663H5.62204L10.0676 14.1071L14.5132 1.8663H20.0952V19.5298Z" fill="#2D2D2D"/>
<path fill-rule="evenodd" clip-rule="evenodd" d="M147.6 9.96207C147.58 10.8098 147.752 11.6508 148.1 12.4204C148.441 13.2129 149.034 13.8648 149.782 14.2706C150.284 14.5222 150.836 14.65 151.395 14.6437V5.44397C150.838 5.43024 150.287 5.55526 149.789 5.80821C149.291 6.06115 148.861 6.43437 148.536 6.89549C147.887 7.77857 147.549 8.85871 147.575 9.96207H147.6ZM159.52 9.96207C159.545 8.83646 159.192 7.73591 158.518 6.84438C158.192 6.39406 157.764 6.03103 157.271 5.78628C156.777 5.54152 156.233 5.42232 155.685 5.43886V14.6386C156.25 14.6556 156.81 14.5273 157.314 14.2657C157.818 14.004 158.249 13.6173 158.568 13.1411C159.208 12.2114 159.541 11.098 159.52 9.96207ZM151.445 19.5247V18.109C149.799 18.1327 148.183 17.6656 146.794 16.7648C145.448 15.8862 144.4 14.607 143.79 13.1002C143.374 12.1159 143.161 11.0546 143.164 9.98252C143.145 8.90969 143.352 7.84516 143.771 6.86107C144.19 5.87697 144.811 4.99628 145.592 4.27867C147.175 2.75637 149.28 1.92875 151.455 1.97362V0.562988H155.71V1.97362C157.349 1.95329 158.959 2.4165 160.346 3.30759C161.701 4.17279 162.766 5.43842 163.4 6.93637C164.005 8.42258 164.157 10.0608 163.835 11.6366C163.514 13.2124 162.734 14.6524 161.597 15.7681C160.816 16.5357 159.893 17.1377 158.883 17.5394C157.872 17.9412 156.794 18.1348 155.71 18.109V19.5247H151.445Z" fill="#2D2D2D"/>
</svg>
