<svg width="30" height="24" viewBox="0 0 30 24" fill="none" xmlns="http://www.w3.org/2000/svg">
<path d="M0 3C0 1.34315 1.34315 0 3 0H27C28.6569 0 30 1.34315 30 3C30 4.65685 28.6569 6 27 6H3C1.34315 6 0 4.65685 0 3Z" fill="#F0F0F0"/>
<path d="M0 12C0 10.3431 1.34315 9 3 9H27C28.6569 9 30 10.3431 30 12C30 13.6569 28.6569 15 27 15H3C1.34315 15 0 13.6569 0 12Z" fill="#F0F0F0"/>
<path d="M0 21C0 19.3431 1.34315 18 3 18H27C28.6569 18 30 19.3431 30 21C30 22.6569 28.6569 24 27 24H3C1.34315 24 0 22.6569 0 21Z" fill="#F0F0F0"/>
</svg>
