<svg width="12" height="11" viewBox="0 0 12 11" fill="none" xmlns="http://www.w3.org/2000/svg">
<path fill-rule="evenodd" clip-rule="evenodd" d="M8.82684 0.530869C8.71339 0.546629 8.57695 0.608925 8.48788 0.68567C8.40688 0.755448 1.7718 8.9184 1.70058 9.03589C1.4819 9.39666 1.72307 9.87613 2.16447 9.95804C2.24483 9.97295 2.36398 9.97849 2.42921 9.97033C2.69106 9.93758 2.48761 10.1729 6.08114 5.74613C7.89029 3.51748 9.41584 1.63781 9.47126 1.5691C9.55763 1.46198 9.57648 1.42115 9.60343 1.28276C9.63049 1.14371 9.62853 1.10211 9.58917 0.982423C9.53851 0.828351 9.40734 0.674056 9.26957 0.606462C9.16041 0.552905 8.93962 0.515203 8.82684 0.530869ZM2.72725 0.118973C1.75749 0.092968 0.848102 0.58956 0.410975 1.38387C-0.414822 2.88438 0.696227 4.75648 2.50829 4.91788C3.59281 5.01448 4.57837 4.48728 5.04376 3.56159C5.13458 3.38098 5.15026 3.32777 5.21268 2.98856C5.27468 2.65155 5.27934 2.59246 5.25982 2.39014C5.2479 2.26668 5.20538 2.05928 5.16533 1.92921C4.93333 1.17573 4.35966 0.578498 3.59122 0.29039C3.40508 0.220604 2.91875 0.124126 2.72725 0.118973ZM3.18323 1.49729C3.61508 1.67987 3.91891 2.13084 3.91071 2.57698C3.90416 2.93297 3.71715 3.25728 3.40309 3.45731C3.11078 3.64349 2.83487 3.69659 2.49248 3.63256C2.16088 3.57057 1.91013 3.41629 1.71771 3.15592C1.40942 2.73877 1.41057 2.23685 1.72072 1.84338C1.83357 1.70022 2.02604 1.55152 2.17888 1.48939C2.50303 1.35763 2.85953 1.36045 3.18323 1.49729ZM8.71214 5.58486C8.18225 5.53941 7.5743 5.685 7.13174 5.96336C6.72122 6.22156 6.43746 6.53057 6.2277 6.94777C6.13688 7.12838 6.12121 7.1816 6.05878 7.5208C5.99679 7.85782 5.99212 7.9169 6.01164 8.11922C6.05418 8.55964 6.24306 9.02287 6.52852 9.38679C6.83022 9.77143 7.26554 10.0775 7.74683 10.2434C8.01629 10.3362 8.52087 10.4036 8.80384 10.3846C9.67836 10.3256 10.4651 9.844 10.8605 9.1255C11.5885 7.80275 10.8228 6.141 9.27749 5.68988C9.02255 5.61546 8.98272 5.60807 8.71214 5.58486ZM9.07212 6.96105C9.42743 7.1233 9.69501 7.4583 9.76913 7.83367C9.84652 8.22572 9.64103 8.68409 9.28588 8.91159C9.02237 9.08037 8.74545 9.14342 8.43754 9.10474C7.6795 9.0095 7.18077 8.27205 7.42162 7.60245C7.56789 7.19574 8.00214 6.87722 8.44857 6.84914C8.60893 6.83905 8.93194 6.89703 9.07212 6.96105Z" fill="#F6F6F6"/>
</svg>
