<svg width="23" height="26" viewBox="0 0 23 26" fill="none" xmlns="http://www.w3.org/2000/svg">
<path d="M0.101562 15.0526C0.101562 14.2969 0.805115 13.6842 1.67299 13.6842C2.54087 13.6842 3.24442 14.2969 3.24442 15.0526V24.6316C3.24442 25.3873 2.54087 26 1.67299 26C0.805115 26 0.101562 25.3873 0.101562 24.6316V15.0526Z" fill="#383B47"/>
<path d="M6.38728 1.36842C6.38728 0.612662 7.09083 0 7.9587 0C8.82658 0 9.53013 0.612663 9.53013 1.36842V24.6316C9.53013 25.3873 8.82658 26 7.9587 26C7.09083 26 6.38728 25.3873 6.38728 24.6316V1.36842Z" fill="#383B47"/>
<path d="M12.673 9.57895C12.673 8.82319 13.3765 8.21053 14.2444 8.21053C15.1123 8.21053 15.8158 8.82319 15.8158 9.57895V24.6316C15.8158 25.3873 15.1123 26 14.2444 26C13.3765 26 12.673 25.3873 12.673 24.6316V9.57895Z" fill="#383B47"/>
<path d="M18.9587 4.10526C18.9587 3.34951 19.6623 2.73684 20.5301 2.73684C21.398 2.73684 22.1016 3.34951 22.1016 4.10526V24.6316C22.1016 25.3873 21.398 26 20.5301 26C19.6623 26 18.9587 25.3873 18.9587 24.6316V4.10526Z" fill="#383B47"/>
</svg>
