<svg width="16" height="16" viewBox="0 0 16 16" fill="none" xmlns="http://www.w3.org/2000/svg">
<path fill-rule="evenodd" clip-rule="evenodd" d="M3.01463 0.1035C2.42609 0.442286 0.626718 2.51954 0.113983 3.45211C-0.00747532 3.673 -0.0121907 3.69461 0.0109222 3.92218C0.0886558 4.68632 0.428276 5.78375 0.897106 6.78571C1.41391 7.89029 2.28785 9.21186 3.28241 10.3929C3.78961 10.9951 4.9783 12.1864 5.56884 12.6842C7.70598 14.4858 9.8584 15.6127 11.7983 15.9456C11.9728 15.9755 12.1643 16 12.224 16C12.4289 16 12.9936 15.637 13.846 14.9571C14.9469 14.0791 15.8132 13.2218 15.9617 12.8633C16.0805 12.5765 15.8472 12.3062 14.9929 11.7407C13.7537 10.9205 12.5997 10.2718 12.0543 10.0887C11.799 10.0031 11.7791 10.0014 11.6512 10.0547C11.4789 10.1265 11.3652 10.236 10.8732 10.8036C10.6518 11.0589 10.3989 11.3372 10.3112 11.422L10.1518 11.5761L9.92335 11.5171C9.17891 11.3248 8.17352 10.7997 7.33871 10.1671C6.9694 9.88729 6.3475 9.28539 6.00373 8.875C5.35578 8.10154 4.74117 6.98468 4.49432 6.13221L4.41369 5.85368L4.60724 5.6555C4.7137 5.5465 4.97762 5.30764 5.19375 5.12471C5.69223 4.70282 5.87299 4.51575 5.94179 4.35046C5.99248 4.22868 5.99116 4.20125 5.92421 3.98457C5.72406 3.33661 4.26137 0.874107 3.73281 0.295143C3.43892 -0.0267857 3.30363 -0.0628572 3.01463 0.1035ZM8.56958 1.14286L8.73927 1.14314C9.48327 1.14443 10.4714 1.38443 11.2387 1.75021C12.5493 2.37496 13.5394 3.34339 14.178 4.625C14.5781 5.42811 14.7482 6.03275 14.8286 6.9375L14.8721 7.42857H16V7.27164C16 6.99721 15.9304 6.38814 15.8526 5.98214C15.6412 4.87789 15.0524 3.61796 14.352 2.77093C13.0721 1.22304 11.3571 0.282072 9.39804 0.0529643C9.14894 0.0238215 8.86062 0 8.75735 0H8.56958V1.14286ZM8.56958 3.98971L8.85173 4.01325C9.68508 4.08275 10.4086 4.42943 11.0166 5.05054C11.5946 5.641 11.9165 6.33889 11.9857 7.15179L12.0093 7.42857H13.1421V7.28136C13.1421 6.78868 12.9229 5.91579 12.6753 5.42246C12.2395 4.55418 11.4661 3.77225 10.6237 3.34832C10.0926 3.08107 9.49746 2.91693 8.89484 2.87143L8.56958 2.84689V3.98971Z" fill="#EC2449"/>
<path fill-rule="evenodd" clip-rule="evenodd" d="M3.73281 0.295143C3.43892 -0.0267857 3.30363 -0.0628572 3.01463 0.1035C2.42609 0.442286 0.626718 2.51954 0.113983 3.45211C-0.00747532 3.673 -0.0121907 3.69461 0.0109222 3.92218C0.0886558 4.68632 0.428276 5.78375 0.897106 6.78571C1.41391 7.89029 2.28785 9.21186 3.28241 10.3929C3.78961 10.9951 4.9783 12.1864 5.56884 12.6842C7.70598 14.4858 9.8584 15.6127 11.7983 15.9456C11.9728 15.9755 12.1643 16 12.224 16C12.4289 16 12.9936 15.637 13.846 14.9571C14.9469 14.0791 15.8132 13.2218 15.9617 12.8633C16.0805 12.5765 15.8472 12.3062 14.9929 11.7407C13.7537 10.9205 12.5997 10.2718 12.0543 10.0887C11.799 10.0031 11.7791 10.0014 11.6512 10.0547C11.4789 10.1265 11.3652 10.236 10.8732 10.8036C10.6518 11.0589 10.3989 11.3372 10.3112 11.422L10.1518 11.5761L9.92335 11.5171C9.17891 11.3248 8.17352 10.7997 7.33871 10.1671C6.9694 9.88729 6.3475 9.28539 6.00373 8.875C5.35578 8.10154 4.74117 6.98468 4.49432 6.13221L4.41369 5.85368L4.60724 5.6555C4.7137 5.5465 4.97762 5.30764 5.19375 5.12471C5.69223 4.70282 5.87299 4.51575 5.94179 4.35046C5.99248 4.22868 5.99116 4.20125 5.92421 3.98457C5.72406 3.33661 4.26137 0.874107 3.73281 0.295143ZM4.88071 4.07077C4.83482 3.97218 4.77072 3.84204 4.68601 3.68045C4.52264 3.3688 4.31364 2.99799 4.09189 2.62466C3.75573 2.05871 3.42841 1.5517 3.20325 1.23788C3.1671 1.2723 3.12894 1.30937 3.08888 1.34904C2.85206 1.58357 2.57359 1.88449 2.29173 2.20987C1.732 2.85605 1.23062 3.51582 1.01384 3.89206C1.09072 4.51006 1.37912 5.45631 1.80286 6.3619C2.27425 7.36941 3.09493 8.6178 4.04731 9.74871C4.51857 10.3083 5.66709 11.4591 6.21337 11.9196C8.26859 13.6522 10.2614 14.6672 11.9674 14.96C12.0133 14.9678 12.0607 14.9753 12.1052 14.9817C12.1438 14.9596 12.1923 14.9304 12.2514 14.8924C12.4838 14.7429 12.8082 14.5057 13.2225 14.1753C13.7514 13.7535 14.2154 13.3433 14.5576 13.0046C14.6337 12.9293 14.7019 12.8593 14.7622 12.7952C14.6732 12.731 14.5671 12.6581 14.441 12.5746C13.3615 11.8601 12.4263 11.3313 11.9321 11.1144C11.8596 11.1941 11.7626 11.3042 11.6288 11.4586C11.4107 11.7102 11.1305 12.0208 11.0063 12.1409L10.4442 12.6844L9.67332 12.4853C8.76343 12.2503 7.63921 11.6495 6.73479 10.9642C6.2973 10.6327 5.62194 9.97651 5.23717 9.51717M4.88071 4.07077C4.80098 4.1439 4.69353 4.23799 4.54771 4.3614C4.32413 4.55064 4.03165 4.81363 3.89183 4.95679L3.29108 5.57192L3.53376 6.41027C3.82421 7.41332 4.51216 8.65171 5.23717 9.51717M14.8286 6.9375L14.8721 7.42857H16V7.27164C16 7.0873 15.9686 6.75194 15.9244 6.42857C15.9028 6.27056 15.8782 6.11541 15.8526 5.98214C15.6412 4.87789 15.0524 3.61796 14.352 2.77093C13.1096 1.26838 11.4572 0.337726 9.56958 0.0749308C9.51262 0.0669994 9.45543 0.0596764 9.39804 0.0529643C9.14894 0.0238215 8.86062 0 8.75735 0H8.56958V1.14286L8.73927 1.14314C9.48327 1.14443 10.4714 1.38443 11.2387 1.75021C12.5493 2.37496 13.5394 3.34339 14.178 4.625C14.5781 5.42811 14.7482 6.03275 14.8286 6.9375ZM12.6753 5.42246C12.8084 5.68754 12.9332 6.06219 13.0203 6.42857C13.0952 6.74406 13.1421 7.0534 13.1421 7.28136V7.42857H12.0093L11.9857 7.15179C11.9165 6.33889 11.5946 5.641 11.0166 5.05054C10.4086 4.42943 9.68508 4.08275 8.85173 4.01325L8.56958 3.98971V2.84689L8.89484 2.87143C9.12183 2.88857 9.34775 2.92254 9.56958 2.97251C9.93669 3.05521 10.2926 3.18174 10.6237 3.34832C11.4661 3.77225 12.2395 4.55418 12.6753 5.42246Z" fill="#EC2449"/>
</svg>
